<svg xmlns="http://www.w3.org/2000/svg" width="196.898" height="44.825" viewBox="0 0 196.898 44.825">
  <g id="Grupo_52" data-name="Grupo 52" transform="translate(-3573.643 -1742.024)">
    <g id="Grupo_50" data-name="Grupo 50" transform="translate(3573.643 1742.024)">
      <g id="Grupo_48" data-name="Grupo 48" transform="translate(0 13.628)">
        <g id="Grupo_47" data-name="Grupo 47">
          <g id="Grupo_45" data-name="Grupo 45" transform="translate(15.334 20.102)">
            <path id="Trazado_84" data-name="Trazado 84" d="M3625.863,1849.42a3.286,3.286,0,1,1-3.4,3.265A3.182,3.182,0,0,1,3625.863,1849.42Z" transform="translate(-3622.467 -1849.42)" fill="#ed1f2c"/>
            <path id="Trazado_85" data-name="Trazado 85" d="M3657.518,1849.42a3.286,3.286,0,1,1-3.4,3.265A3.182,3.182,0,0,1,3657.518,1849.42Z" transform="translate(-3644.18 -1849.42)" fill="#ed1f2c"/>
            <path id="Trazado_86" data-name="Trazado 86" d="M3689.174,1849.42a3.286,3.286,0,1,1-3.4,3.265A3.182,3.182,0,0,1,3689.174,1849.42Z" transform="translate(-3665.894 -1849.42)" fill="#ed1f2c"/>
          </g>
          <g id="Grupo_46" data-name="Grupo 46">
            <path id="Trazado_87" data-name="Trazado 87" d="M3573.643,1799.18a.657.657,0,0,1,.656-.657h.788c.963,0,1.371-.392,1.371-1.532v-6.626c0-3.669,1.667-4.951,6.484-4.951h1.826a.657.657,0,0,1,.657.657v3.226a.657.657,0,0,1-.624.656c-2.049.1-2.637.772-2.637,2.3v4.346c0,1.888-.442,3.043-1.592,3.719a.656.656,0,0,0-.005,1.128c1.154.69,1.6,1.846,1.6,3.737v4.31c0,1.529.587,2.2,2.637,2.3a.657.657,0,0,1,.624.655v3.262a.657.657,0,0,1-.657.657h-1.826c-4.817,0-6.484-1.318-6.484-4.987v-6.59c0-1.14-.408-1.568-1.371-1.568h-.788a.657.657,0,0,1-.656-.657Z" transform="translate(-3573.643 -1785.415)" fill="#ed1f2c"/>
            <path id="Trazado_88" data-name="Trazado 88" d="M3722.22,1809.495v-4.31c0-1.888.422-3.042,1.575-3.719a.656.656,0,0,0,.005-1.129c-1.157-.69-1.581-1.845-1.581-3.736v-4.346c0-1.527-.616-2.195-2.637-2.3a.657.657,0,0,1-.624-.655v-3.227a.657.657,0,0,1,.657-.657h1.789c4.817,0,6.484,1.282,6.484,4.951v6.626c0,1.14.408,1.532,1.408,1.532h.751a.657.657,0,0,1,.657.657v3.388a.657.657,0,0,1-.657.657h-.751c-1,0-1.408.427-1.408,1.568v6.59c0,3.669-1.667,4.987-6.484,4.987h-1.789a.657.657,0,0,1-.657-.657v-3.262a.657.657,0,0,1,.624-.656C3721.6,1811.689,3722.22,1811.022,3722.22,1809.495Z" transform="translate(-3673.321 -1785.415)" fill="#ed1f2c"/>
          </g>
        </g>
      </g>
      <g id="Grupo_49" data-name="Grupo 49" transform="translate(17.624 0)">
        <path id="Trazado_89" data-name="Trazado 89" d="M3646.435,1769.147a.987.987,0,0,0-1.478-1.007l-.585.347a8.933,8.933,0,0,1-1.623.963c-.577-.1-1.711-3.132-1.916-3.643a18.467,18.467,0,0,1-1.285-5.923.987.987,0,0,0-1.7-.626c-3.068,3.18-3.764,7.692-3.157,12.062a.987.987,0,0,1-1.723.787,13.015,13.015,0,0,1-2.037-14c1.3-2.95,2.9-5.787,4.378-8.653a19.214,19.214,0,0,0,1.715-4.113,9.194,9.194,0,0,0,.2-2.328.987.987,0,0,1,1.595-.782c2.922,2.262,5.364,4.736,6.463,8.512a21.241,21.241,0,0,1,.716,7.1.987.987,0,0,0,1.926.356,16.235,16.235,0,0,0,.615-2.706.987.987,0,0,1,1.9-.2c.178.483.327.955.463,1.36a15.555,15.555,0,0,1,.982,5.433,16.426,16.426,0,0,1-4.061,9.707.987.987,0,0,1-1.725-.824C3646.227,1770.346,3646.344,1769.712,3646.435,1769.147Z" transform="translate(-3629.759 -1742.024)" fill="#ed1f2c"/>
      </g>
    </g>
    <g id="Grupo_51" data-name="Grupo 51" transform="translate(3648.95 1756.856)">
      <path id="Trazado_90" data-name="Trazado 90" d="M4036.4,1804.322c0-1.746-.053-3.495.01-5.239.191-5.313,2.467-8.118,7.626-9.264a22.235,22.235,0,0,1,10.549.137c4.014,1.045,6.466,3.657,6.748,7.73a98.468,98.468,0,0,1,.008,13.165c-.262,4.014-2.7,6.6-6.612,7.641a22.254,22.254,0,0,1-11.776-.085c-4.033-1.105-6.214-3.85-6.5-8.126-.13-1.978-.022-3.972-.022-5.959Zm19.512.07c0-1.574.031-3.149.006-4.722a5.806,5.806,0,0,0-5.34-5.684,17,17,0,0,0-4.116.158c-3.3.544-4.383,1.969-4.418,5.308-.035,3.369-.056,6.74.015,10.108.06,2.817,1.063,4.145,3.821,4.645a19.8,19.8,0,0,0,5.722.215c3.1-.357,4.234-1.822,4.305-4.973C4055.943,1807.763,4055.912,1806.078,4055.91,1804.393Z" transform="translate(-3966.354 -1789.252)" fill="#3d4159"/>
      <path id="Trazado_91" data-name="Trazado 91" d="M4155.148,1792.272l-.877,2.345a.83.83,0,0,1-.9.53c-2.836-.431-5.533-.924-8.25-1.155a3.3,3.3,0,0,0-3.654,2.081,3.25,3.25,0,0,0,1.991,4.269c2.07.788,4.229,1.347,6.35,2a8.513,8.513,0,0,1,5.242,12.39,7.23,7.23,0,0,1-5.038,4.028c-4.756,1.063-9.226.1-13.757-1.8a.834.834,0,0,1-.437-1.117l1.04-2.266a.831.831,0,0,1,.9-.472c3.078.53,5.964,1.148,8.883,1.42,2.516.235,3.737-.824,4.1-2.842.425-2.382-.275-3.681-2.739-4.563-2.144-.768-4.368-1.31-6.542-2-3.973-1.257-5.727-3.726-5.694-7.939.028-3.748,1.888-6.17,5.8-7.26a18.845,18.845,0,0,1,13.154,1.29A.835.835,0,0,1,4155.148,1792.272Z" transform="translate(-4034.51 -1789.266)" fill="#3d4159"/>
      <path id="Trazado_92" data-name="Trazado 92" d="M3824.279,1794.944h-9.325a.832.832,0,0,1-.831-.832v-2.493a.831.831,0,0,1,.831-.832h16.438a.835.835,0,0,1,.829.757,6.746,6.746,0,0,1-.809,4.247c-3.379,5.837-6.643,11.741-9.948,17.621-.222.4-.439.794-.678,1.234a.832.832,0,0,0,.731,1.229h10.05a.831.831,0,0,1,.832.831v2.282a.832.832,0,0,1-.832.832h-17.279a.836.836,0,0,1-.83-.761,6.546,6.546,0,0,1,.882-4.106c3.5-5.978,6.862-12.032,10.274-18.059.13-.229.255-.459.4-.725A.832.832,0,0,0,3824.279,1794.944Z" transform="translate(-3813.422 -1790.305)" fill="#3d4159"/>
      <path id="Trazado_93" data-name="Trazado 93" d="M3969.284,1819.851h-3.975a.832.832,0,0,1-.832-.832v-27.341a.832.832,0,0,1,.832-.832h15.538a.832.832,0,0,1,.832.832v2.444a.832.832,0,0,1-.832.832h-9.808a.832.832,0,0,0-.832.832v6.7a.831.831,0,0,0,.832.832h9.013a.832.832,0,0,1,.832.832v2.6a.831.831,0,0,1-.832.832h-9.105a.832.832,0,0,0-.832.832v10.6A.832.832,0,0,1,3969.284,1819.851Z" transform="translate(-3917.037 -1790.345)" fill="#3d4159"/>
      <path id="Trazado_94" data-name="Trazado 94" d="M3890.355,1819.034v-2.452a.832.832,0,0,1,.832-.832h3.435a.832.832,0,0,0,.832-.832v-19.008a.832.832,0,0,0-.832-.831h-3.363a.831.831,0,0,1-.831-.832v-2.517a.831.831,0,0,1,.831-.832h14.267a.832.832,0,0,1,.832.832v2.43a.832.832,0,0,1-.832.832h-3.334a.832.832,0,0,0-.832.832v19a.832.832,0,0,0,.832.832h3.381a.832.832,0,0,1,.832.832v2.549a.831.831,0,0,1-.832.831h-14.386A.832.832,0,0,1,3890.355,1819.034Z" transform="translate(-3866.193 -1790.382)" fill="#3d4159"/>
    </g>
  </g>
</svg>
